<?xml version="1.0"?>
<svg xmlns:rdf="http://www.w3.org/1999/02/22-rdf-syntax-ns#" xmlns="http://www.w3.org/2000/svg" xmlns:cc="http://web.resource.org/cc/" xmlns:xlink="http://www.w3.org/1999/xlink" xmlns:dc="http://purl.org/dc/elements/1.1/" id="Layer_1" xml:space="preserve" overflow="visible" viewBox="0 0 167.131 199.636" version="1.1" enable-background="new 0 0 167.131 199.636">
<g clip-rule="evenodd" fill-rule="evenodd">
	<path d="m108.96 0.587c-1.06 1.466-3.07-0.554 0 0z"/>
	<path d="m114.24 1.547c-0.649 2.075-2.691 0.258-3.841 0 0.33-1.753 3.3-0.87 3.84 0z"/>
	<path d="m112.8 8.267c1.159 1.115-0.75 1.285-0.96 2.4 1.489 0.05 1.37-1.51 3.36-0.96-1.418 3.862-5.665 4.896-9.12 6.72-0.925-1.537 0.283-2.422-0.48-4.32 2.42-1.254 4.47-2.886 7.2-3.84z"/>
	<path d="m117.12 11.627c0.24 2.321-1.426 2.734-2.88 3.36-1.334 1.359-4.056 3.442-5.761 2.88 2.16-2.805 5.15-4.77 8.64-6.24z"/>
	<path d="m87.84 14.987c1.4-0.706 1.4 2.146 0 1.44v-1.44z" fill="#fff"/>
	<path d="m85.92 16.427c0.816-0.176 0.906 0.375 0.96 0.96-0.408-0.088-0.453 0.188-0.48 0.48-0.563-0.077-0.405-0.875-0.48-1.44z" fill="#fff"/>
	<path d="m134.4 19.307c1.089 1.558-1.857 2.4-2.88 3.36-0.831 2.368-3.136 3.264-4.319 5.28-4.122 0.044-6.261 4.612-10.561 2.88 2.077-2.706 5.563-2.574 8.16-4.32 3.253-2.188 5.476-5.569 8.64-7.68 0.56-0.078 0.85 0.106 0.96 0.48z"/>
	<path d="m65.28 20.747c0.726-1.695 0.911 0.884 0.48 0.96-0.284 0.05-0.603-0.674-0.48-0.96z" fill="#fff"/>
	<path d="m119.52 25.067c-0.773 3.293-6.141 4.329-8.64 4.32 0.6-3.466 5.53-4.938 8.64-4.32z"/>
	<path d="m139.2 25.547c4.155-0.017 1.937 9.258-1.44 9.12 0.13-3.392 0.73-6.312 1.44-9.12z"/>
	<path d="m107.52 30.347c0.002 2.26-2.293 4.181-4.319 2.88 0.37-2.028 2.24-2.56 4.32-2.88z"/>
	<path d="m142.56 30.827c2.112 1.248 4.053 2.667 3.36 6.72 1.544 2.672 2.068 7.173 0.479 9.6-1.834-1.536-1.306 0.047-3.84 0-0.661-0.619-0.475-2.085-0.479-3.36h1.439c0.361-1.801-1.833-1.046-1.92-2.4 0.3-1.78 1.35-2.811 1.92-4.32-0.726-0.907-1.646 2.031-3.359 0.48 0.37-2.673 1.68-4.397 2.4-6.72z"/>
	<path d="m151.2 35.627c-0.748 1.812-1.013 4.108-2.881 4.8-0.43-1.29 0.25-5.025 2.88-4.8z"/>
	<path d="m141.6 45.227c0.062 0.861-0.588 1.012-0.479 1.92-1.39-0.086-1.16-2.282 0.48-1.92z"/>
	<path d="m67.68 60.587c0.205 2.605-1.219 3.581-2.88 4.32 0.935-1.465 0.391-4.408 2.88-4.32z"/>
	<path d="m158.88 63.947c-2.596-0.779-5.979 2.802-6.72 6.72-1.238-2.417 0.042-4.791 0-6.72 2-2.19 5.15-3.186 6.72 0z" fill="#fff"/>
	<path d="m126.72 72.107c0.25 0.71 0.71 1.209 0.96 1.92 4.27-0.375 9.025 2.775 10.08 7.2h-2.4c-3.021-2.431-8.496-3.834-13.439-2.88 2.255 2.751 7.26 3.014 11.04 5.28-0.914 1.967-0.53 3.234-1.92 5.28-1.122-0.158-1.983-0.577-2.88-0.96-0.204-1.003 0.328-1.271 0.479-1.92-0.339-1.261-2.253-0.947-2.88-1.92-1.334 0.266-1.344 1.856-1.92 2.88-3.943 2.147-7.664-0.721-10.56-2.4 0.77 3.402 5.384 4.387 8.159 4.32-1.236 4.307-9.528 3.202-10.08-1.44-1.649 0.21-2.69-0.189-3.84-0.48 0.235-2.244 0.569-3.124-0.479-4.8-2.834 0.274-4.951-0.169-5.76-1.92 0.822-2.217 4.62-1.459 5.76-3.36 6.691-0.021 11.064-6.417 17.279-3.84 1.48 0.357 0.92-1.318 2.4-0.96z"/>
	<path d="m146.88 76.427c1.325 0.115 1.095 1.785 1.92 2.4-0.312 0.488-1.104 0.497-0.96 1.44-0.918-0.202-2.066-0.174-1.92-1.44 0.408-0.088 0.452 0.188 0.479 0.48 1.06-0.06 0.2-2.036 0.48-2.88z" fill="#fff"/>
	<path d="m76.32 82.187c-2.054-0.607-2.374 0.035-4.8 0 0.265-1.975 4.394-1.729 4.8 0z" fill="#fff"/>
	<path d="m102.24 85.547c2.825 0.694 3.585 3.454 4.8 5.76-3.01-0.511-4.58-2.465-4.8-5.76z"/>
	<path d="m66.72 86.507c3.347 2.895 3.849 7.785 11.04 5.76 1.352-0.485-0.132-2.039 0-2.88 4.355 1.054 5.503-2.771 8.64-1.44-0.068 1.852-1.622 2.218-1.44 4.32 2.401 0.159 2.364 2.756 4.8 2.88 0.374 3.253-0.655 5.104-0.479 8.16-0.611 0.609-1.261 1.46-1.92 2.4-0.447 0.637-0.937 2.317-1.44 2.88-1.8 2.014-5.941 2.79-5.28 7.68 0.29 2.143 1.81 2.222 2.88 4.32-4.389-0.869-3.888 3.151-7.68 2.88 1.039-2.357 1.94-4.483 0.48-7.2-2.537 1.143-1.951 5.409-2.88 8.16-5.242-1.968-2.838-13.315-4.8-18.72-2.801-2.206-2.437-9.98-1.92-13.92-1.921-0.319-1.229-3.25-2.4-4.32 0.906-0.216 2.892 0.65 2.399-0.963z" fill="#fff"/>
	<path d="m155.04 92.267c2.031 1.121-0.519 4.547-1.44 5.76-2.52-1.611 0.58-4.491 1.44-5.76z"/>
	<path d="m110.4 107.15c4.677 3.164 8.079 7.602 14.4 9.12 1.217 1.344 2.626 2.494 3.84 3.84-0.243 5.313 0.751 10.667-1.439 15.84-2.135-4.25-0.694-9.175-1.921-14.399-3.866-2.345-9.108-3.323-13.439-6.24-0.354-1.667-1.457-2.54 0-3.84-0.872-1.848-3.756-1.684-4.8-3.36 0.07-1.38 2-0.88 3.36-0.96z"/>
	<path d="m136.32 121.07c-1.441-0.159-2.466-0.734-2.88-1.92 1.45-1.31 2.7 0.49 2.88 1.92z"/>
	<path d="m71.52 124.91c2.314 0.958 3.232 2.803 2.4 5.76-1.415-1.31-2.49-2.95-2.4-5.76z" fill="#fff"/>
	<path d="m107.04 129.23c-1.039 1.977-4.025 0.318-5.76 0.48-1.148 0.106-1.916 0.9-2.881 0.96-2.616 0.16-4.546-0.898-6.239-0.48-0.784-2.438 6.637-1.508 9.12-1.439 1.372 0.037 2.729-0.604 3.359-0.48 1.18 0.23 1.24 2.21 2.4 0.96z" fill="#fff"/>
	<path d="m79.68 139.79c-3.82-1.347 1.96-4.079 0-6.721 2.342-2.787 4.401-1.577 4.32 0.96-0.074 2.33-4.327 3.81-4.32 5.76z" fill="#fff"/>
	<path d="m61.92 140.27c-5.002-2.482-7.237 1.099-8.64 4.8-6.379-0.177-25.516-12.631-24.48 3.84 3.707 4.934 8.52-5.334 12 0.96-1.449 0.541-4.247-0.907-4.32 1.921-3.486 0.088-8.295 0.533-8.64 3.359-4.406-1.849-9.019 2.92-7.2 9.12-0.968 1.432-2.432 2.368-3.36 3.84-0.404 4.884 2.144 6.816 2.4 11.04-1.478 0.336-0.923 0.336-2.4 0-3.117 7.516 3.316 11.421 5.28 16.8-0.868 0.893-2.424 1.097-3.84 1.44-1.051-2.148-2.908-3.492-3.84-5.76-1.778 0.288-2.783 0.79-3.84-0.48-2.377 3.791-4.615 9.984-11.04 8.16 1.943-6.856 6.549-11.051 9.6-16.8 2.245-0.795 3.515-2.565 5.76-3.36 0.272-4.272-1.604-6.396-0.96-11.04 1.175-1.865 2.959-3.121 3.84-5.28-2.021-7.915 5.771-9.604 9.12-12.479 0.082-2.002-1.472-2.368-1.44-4.32 1.9-1.829 2.463-4.857 4.32-6.72 0.719-0.721 2.484-0.396 2.4-1.92 6.054 1.849 14.122 3.025 19.2 6.24 1.216-0.864 1.63-2.53 1.92-4.32 1.719-2.46 7.564-2.71 8.16 0.96z"/>
	<path d="m59.04 149.39h1.44c0.476 1.284 0.989 2.531 0.96 4.32-2.167 0.232-1.734 3.065-4.8 2.399 1.047-2 2.243-3.84 2.4-6.72z" fill="#fff"/>
	<path d="m51.84 152.75c1.222 0.059 1.861 0.698 1.92 1.92-0.563-0.72-1.995-0.57-1.92-1.92z" fill="#fff"/>
	<path d="m58.56 163.31c1.324 0.436 3.371 0.149 4.32 0.96-0.394 2.13-4.381 0.46-4.32-0.96z"/>
	<path d="m125.76 169.55c-4.948 0.331-7.431 3.13-11.04 4.8-1.904 0.656-1.507 3.613-4.32 3.36 0.641-4.2 7.722-6.009 10.561-9.601 2.37 0.09 4.57-1.42 4.8 1.44z"/>
	<path d="m132.48 173.39c-1.048 2.733-6.824 6.1-12 6.24-1.837 0.05-5.323 0.16-6.239-1.92 4.756 0.147 13.503-0.679 16.8-4.801 0.39 0.25 0.78 0.5 1.44 0.48z"/>
	<path d="m59.52 182.03c-6.312-1.021-10.802-6.346-17.28-6.72-6.353-0.366-11.839 5.25-18.72 3.84-0.357-1.478 1.317-0.922 0.96-2.4 9.124 0.665 13.287-5.052 23.04-2.399 2.718 3.84 10.025 3.09 12 7.68z"/>
	<path d="m59.52 176.75c1.859 0.541 3.864 0.937 5.28 1.921-0.915 1.82-5.373 0.3-5.28-1.92z"/>
	<path d="m59.04 183.47c-0.389 3.053-4.123 1.368-5.76 0.479 1.418-0.57 4.302-1.47 5.76-0.48z"/>
	<path d="m128.64 19.307c-0.804 2.396-3.798 2.602-5.76 3.84-0.421-1.971-0.901-2.452-2.4-2.4-0.227-1.507 1.292-1.269 1.44-2.4-2.514-0.434-1.807 2.354-4.32 1.92-0.203-1.003 0.329-1.271 0.48-1.92-2.465-0.064-2.918 1.882-5.28 1.92-0.052-2.452 2.488-2.312 2.88-4.32 4.304-0.017 4.085-4.555 7.68-5.28 1.293 1.248-0.587 1.448-0.479 2.88 0.441 1.308 1.5-0.67 2.88 0-0.331 1.291 0.992 0.928 1.44 1.44-0.053 0.688-2.107 2.502 0 2.4 0.17 2.022-3.2 2.21-1.921 3.84 1.15-0.581 1.86-3.184 3.36-1.92z"/>
	<path d="m145.92 19.307c0.684 0.916 1.115 2.084 1.439 3.36-1.16-0.438-1.27-1.929-1.44-3.36z" fill="#fff"/>
	<path d="m139.2 56.747c0.466 0.013 0.372 0.587 0.479 0.96 0.386-0.254 0.779-0.501 1.44-0.48v1.92c-0.82-0.617-1.89-0.993-1.92-2.4z" fill="#fff"/>
	<path d="m127.2 2.987c4.438-2.079 9.897 1.948 12 5.28 1.156 0.196 1.043-0.877 2.399-0.48 0.984 1.416 2.134 2.667 3.84 3.36 2.664 6.457 6.208 14.591 6.24 22.08-1.505-0.575-1.778-2.382-1.92-4.32-2.52 0.041-1.876 3.244-4.32 3.36-0.188-3.229 2.908-3.172 3.36-5.76 0.35-1.31-0.954-0.966-0.96-1.92-2.19 0.53-1.592 3.849-3.84 4.32 0.372-1.867 0.55-3.929 1.92-4.8-0.206-0.914-1.034-1.206-0.96-2.4-2.216-0.296-2.763 1.078-4.8 0.96 0.018-2.21 0.344-2.791-1.921-4.32 2.229-1.622-3.287-5.984 0.48-7.68-2.263-1.737-4.618-3.382-6.72-5.28 0.472 1.919 0.472 2.881 0 4.8-3.606 1.509-4.813-1.768-9.12-0.96 0.607-1.888-1.133-1.428-2.4-1.44-0.203-1.003 0.329-1.271 0.48-1.92-1.469-0.349-1.412 0.828-2.88 0.479-1.126-0.914 1.389-3.561-1.92-2.88 0.157-1.122 0.576-1.983 0.96-2.88 4.39 0.833 9.25-0.672 10.08 2.401zm20.16 19.68c-0.324-1.276-0.756-2.444-1.439-3.36 0.17 1.431 0.28 2.922 1.44 3.36z"/>
	<path d="m90.24 19.787c2.442 0.546 6.11-4.029 8.159-0.48 0.393 1.833-1.021 1.858-1.92 2.4 0.148 1.132 1.667 0.893 1.44 2.4 1.404-1.43 1.657-1.156 4.32-0.96 0.165 2.085-1.161 2.679-1.44 4.32 2.528-0.517 5.614-4.621 9.12-5.76 2.487 2.589-1.849 4.668-2.88 6.72-4.727 1.033-5.451 6.069-11.04 6.24-1.405 0.125-1.475-1.085-2.88-0.96-2.873 1.819-6.978 3.788-8.64-0.48-1.264 0.236-1.617 2.646-2.88 1.44v-2.4c-0.851 0.589-2.53 0.35-2.88 1.44-2.184-0.536-3.985-1.455-3.84-4.32-1.763 0.316-3.291 0.882-4.32-0.48 0.95-3.85 2.955-6.645 4.32-10.08 0.085-1.686-1.621-1.579-1.92-2.88 0.514-5.246 6.119-5.401 6.72-10.56 1.354-0.245 2.155-1.045 2.4-2.4 4.301-1.499 9.965-3.47 16.319-2.88 0.044 2.415-3.343 2.851-5.76 4.32-3.515 2.136-7.033 3.918-4.32 6.72 5.372-0.389 7.832-3.688 12.96-4.32-0.785 5.775-7.635 5.486-11.521 8.16 1.1 0.5 1.334 1.866 2.4 2.4-0.559 0.88-1.254 1.625-1.919 2.4zm-2.4-3.36c1.4 0.706 1.4-2.146 0-1.44v1.44zm-1.44 1.44c0.027-0.292 0.072-0.568 0.48-0.48-0.054-0.585-0.144-1.136-0.96-0.96 0.075 0.565-0.083 1.363 0.48 1.44z"/>
	<path d="m64.32 68.267c1.864 0.104 0.623-2.897 2.4-2.88 1.613 2.219-2.99 6.771 0.48 10.08 8.166-2.415 16.639 4.773 25.92 5.76 0.153 4.102 5.104 7.66 1.92 12 2.407 5.933 0.234 13.167-0.96 19.68 1.617 1.422 3.862 2.217 3.84 5.28 2.165-0.555 3.18-2.26 3.84-4.32 2.752 0.352 3.537-1.263 5.76-1.44-0.459 1.739 2.072 0.488 2.4 1.44 0.232 1.833-0.137 3.064-0.96 3.84-2.436-0.938-5.059-2.154-7.68-0.48 0.812 1.587 3.236 1.563 2.399 4.8 2.535-0.274 3.816 1.819 6.24 2.88 0.106-2.506-2.649-2.15-3.84-3.36 0.709-1.931 5.661-0.38 5.76 1.44 2.204 0.26 3.353-0.202 4.8 1.44 1.505-0.694 3.58-2.175 4.8-0.48-0.328 3.229-2.657 2.116-4.319 3.36 0.1 2.957 2.369 3.191 0 5.28-2.48 0.08-2.218-2.583-4.801-2.4-3.055 1.745-1.617 7.982-7.68 6.72 0.791-1.929 4.197-1.243 4.8-3.359-4.493 0.797-12.262 2.256-16.8 2.399 0.879 1.842 4.093 1.348 5.28 2.88 7.006-0.692 16.531 1.255 22.56-0.96 0.472 0.649 1.281 0.96 1.92 1.44-0.425 5.099-2.975 12.748-2.88 19.2 0.338-3.482 5.066-5.918 6.24-10.08 1.512 0.231 1.087-1.474 2.88-0.96 3.428-6.812 3.419-17.062 4.8-25.92 3.229 0.692 0.36 5.262 0.48 8.16 0.229 5.537-1.17 14.538-4.8 18.239 3.412 1.382 3.826-4.092 6.72-4.8 1.318-5.081 6.439-6.359 6.24-12.96 2.506-1.73 3.804-5.382 4.319-8.64 2.12-13.385 0.176-26.388 1.92-38.88-1.016-0.641-2.707 1.173-4.319-0.48 2.563-4.83-0.742-7.725-0.96-12.479 4.148 0.035 0.192 2.7 2.88 3.36 0.394-2.268 1.4-0.938 2.399-2.4-1.48-2.199-6.154-1.206-7.199-3.84 1.324-1.084 2.82 0.733 4.319 0.96-1.11-1.609-3.092-2.348-4.8-3.36-0.905-0.746 0.688-1.871-0.479-2.88-2.888-0.312-3.167-3.233-4.801-4.8 0.047-2.193 1.893-2.588 1.44-5.28 0.816-0.176 0.905 0.375 0.96 0.96 1.685-0.394-1.663-3.471 0.96-3.36 0.75 1.24-0.646 3.986 1.44 4.8 1.078-0.202 0.013-2.547 0.96-2.88 2.114 0.048 1.966-1.606 3.359 0v-3.36c1.988 1.224 1.625 0.88 3.36 0.96-0.78 1.573 0.108 1.835 0 3.84-1.103-0.102-4.357 1.257-6.72 1.44 0.518 1.882 3.264 1.536 4.8 2.4 0.153 1.113-0.077 1.843-0.48 2.4-1.019 0.962-2.139-0.682-3.359-0.96-0.188 2.732 2.617 3.2 3.84 1.92 0.703 1.469 0.129 2.5-0.48 3.84-1.515 0.235-1.694-0.865-3.359-0.48 0.092 2.34 1.697 0.189 1.92 2.4 1.132-0.148 0.893-1.667 2.399-1.44 1.545 0.695 1.135 3.346 1.92 4.8 2.723-0.478 0.236-6.164 3.841-5.76-2.271-1.89-1.868-6.452-2.881-9.6 0.439-0.841 0.893-1.667 2.4-1.44 0.369-1.809-0.586-2.294-0.479-3.84 1.31-0.043 0.966 0.799 1.92 0-2.154-3.077-1.202-4.341-1.92-7.68 0.914 0.206 1.205 1.034 2.399 0.96 1.14-0.3-0.074-2.955 0.96-3.36 4.123 1.846 0.644 9.555 2.88 13.92 0.21 0.712 0.614-0.189 1.44 0-0.852 1.229-0.852 3.309-1.44 4.8 0.34 1.261 2.253 0.947 2.88 1.92-0.202 0.918-0.174 2.066-1.439 1.92 1.934 5.101 4.775 10.732 4.8 16.8 0.02 4.972-2.521 9.464-1.92 14.4-0.846 0.435-0.793 1.767-1.92 1.92-0.399 7.408-6.307 10.148-10.561 14.88 1.521 10.687-5.051 18.909-0.479 26.88 1.356-0.396 1.243 0.677 2.4 0.479 0.489 0.631 0.47 1.77 0.96 2.4 3.234 0.925 4.094 4.227 7.68 4.8 0.658 2.541 3.079 3.321 5.28 4.32 0.904 0.746-0.688 1.87 0.479 2.88 1.273 0.153-0.449-2.689 1.44-1.92 0.38 1.66-0.534 2.026-0.96 2.88-6.338-1.662-9.438-6.562-14.88-9.12-0.421 1.541 1.244 0.995 1.439 1.92-0.36 2.272 0.325 5.265 0 7.2-0.86 5.124-4.309 9.821-5.76 14.88-0.425 1.481-0.024 3.396-0.48 4.8-1.138 3.507-3.732 7.02-4.8 10.561-0.885 2.935-0.36 6.081-2.399 8.64-1.177 0.268-2.532 0.606-4.32 0-0.814-3.455 2.682-6.104 2.88-10.08-5.152 2.369-9.444 9.754-15.84 12.48-0.369-2.684 2.943-3.445 4.319-4.801 0.474-0.466 0.463-1.483 0.961-1.92 2.164-1.9 4.944-3.139 7.199-4.8 1.896-1.396 3.423-3.354 5.28-4.8 2.761-10.519 7.863-18.697 10.56-29.28-2.574-3.985-3.88-9.239-4.8-14.88-2.608 2.191-3.704 5.896-4.8 9.601-2.522 0.812-3.076 3.151-4.8 5.279-4.393 5.423-11.222 8.257-15.84 13.92-1.531-0.284-1.484 0.901-2.4 0-1.769 2.071-0.95 6.729-4.319 7.2 0.417-2.883 2.852-5.423 1.92-8.16 4.027-4.428 5.17-13.012 4.319-19.68-18.533 0.757-38.458 0.491-57.12 2.4 0.845 8.915 3.529 15.99 6.72 22.56 1.054 0.866 1.967 1.873 3.36 2.4 0.965 5.754 6.835 6.604 9.6 10.56 0.418 1.858-2.096 0.784-1.44 2.88 2.013 0.703 6.701 1.08 10.561 0.96 0.861-0.026 1.635-0.994 2.399-0.96 0.78 0.035 1.616 1.005 2.4 0.96 0.941-0.054 2.266-0.81 3.359-0.96 3.337-0.459 5.388 0.396 7.2-1.439-1.284-1.635 0.094-3.815 0.48-5.28 2.583-0.616 3.552-2.848 5.279-4.32 2.112 1.612-2.216 4.721-3.84 5.761 1.254 6.266 6.387 8.653 8.16 14.399-4.126-1.634-5.21-6.31-8.16-9.12-2.438-0.357-2.267 1.894-4.319 1.92 0.273 2.287 1.716 3.403 2.399 5.28-1.402 5.731-8.651 5.516-12.479 5.28-1.685 0.132 1.204 1.788-0.48 1.92-1.776 0.336-1.197-1.683-1.92-2.4-3.863 1.994-8.004 2.488-12.96 2.4-0.435-3.122-3.647-1.126-6.24-1.44-0.845-5.346-1.691-11.905 0.96-15.84 2.123-0.651 1.505 1.445 1.92 2.4 1.085 2.495 2.126 6.624 0.48 11.04 1.351 1.849 4.526 1.873 7.2 2.399 2.705-3.694 5.42-7.379 9.12-10.08-4.511-1.664-11.518 1.704-14.88-1.439-0.614-1.786-0.752-4.048-1.44-5.761-4.354 1.274-5.384-3.102-9.6-3.359-1 1.031 2.166 1.971 2.88 2.88 0.216 2.776-1.366 3.755-1.92 5.76-1.641 0.085-3.438 1.602-4.8 0.48 0.215 2.455-1.146 3.333-1.44 5.279 0.588 1.972 2.379 2.741 1.92 5.761-3.421 0.54-2.342-3.419-3.36-5.28-6.077 3.914-11.321-2.422-16.8-0.96 1.372 2.851 3.411 7.385 3.36 10.08-4.366-0.594-3.662-6.258-4.8-10.08-4.129 0.19-4.754 3.886-8.64 4.32-1.001 1.691-3.853 3.645-6.24 2.399-0.422-1.542 1.582-0.657 1.44-1.92-2.901 0.341-4.578-0.542-5.28-2.399 2.475 0.706 6.929 0.178 10.08-0.961-0.379-1.799-1.679-0.029-2.4-0.96v-2.399c4.948-0.203 9.1-2.069 13.44-1.92 5.405 0.186 9.873 4.588 15.36 2.88 1.34-1.22 1.7-3.42 2.4-5.28 1.192 0.624 1.992-1.408 2.4 0 1.399-1.787 3.031-0.701 3.84-3.359-4.934-6.586-13.392-9.648-21.12-13.44-6.928 0.02-9.679 1.434-16.8 1.44-2.117 1.391-5.275 1.598-7.2 0.96-0.629-2.069 2.285-0.595 1.92-2.4 1.113-0.153 1.843 0.077 2.4 0.48 3.367-2.403 8.66-0.979 12.96-3.36 8.042-0.362 12.762 2.598 18.72 4.32 0.268 0.979 1.444 0.94 0.48 1.92 3.464-1.129 7.506 0.207 7.68-4.801-2.591-0.384-5.908-3.075-9.6-3.84 0.411-1.531-0.756-1.484-0.96-2.399-5.496-1.545-10.229-3.852-14.88-6.24 0.951-2.806 3.292 1.142 4.8-0.48 1.295 1.105 1.986 2.814 4.8 2.4 0.74-1.139-4.272-3.345-1.44-5.28 1.199 3.441 3.958 5.322 7.2 6.721 1.217-2.903 0.785-4.587 1.44-8.16-1.766 0.53-3.641 3.572-4.32 0 2.727 0.006 3.561-1.88 6.24-1.92-0.335-2.02-2.186 0.459-2.4-1.44-0.061-0.86 0.587-1.013 0.48-1.92 3.46 1.095 8.775-0.121 13.92-0.479-2.649-3.106-3.65-6.66-4.8-12-1.318-6.123-4.769-12.438-5.76-17.76-0.138-0.74 0.636-0.907 0.48-1.44-0.837-2.868-2.456-5.719-4.8-7.2-1.466-12.69-7.352-22.164-6.72-35.52 0.897-0.383 1.758-0.802 2.88-0.96-0.119-4.201-2.364-6.276-2.4-10.56-0.471-0.648-1.281-0.959-1.92-1.44-0.096-3.532 1.047-6.383 0.96-11.04 0.954-0.006 0.61-1.31 1.92-0.96-0.25-2.368 0.266-4.127 0.96-6.24 1.09-3.318 2.343-8.322 4.32-12.48 0.628-1.322 1.775-2.471 2.4-3.84 0.675-1.48 0.856-3.432 1.44-4.32 0.701-1.066 2.871-1.139 2.4-2.88 5.009-0.911 9.961-1.879 11.52-6.24 0.427 0.373 1.084 0.516 1.92 0.48 0.761 4.441-4.617 2.743-3.84 7.2-0.914 0.206-1.206 1.034-2.4 0.96 1.27 2.85-1.804 5.133-3.84 6.24 0.987 1.752-0.215 2.155-0.96 3.36 0.79 1.564 2.604-0.878 3.36 0.48 0.651 2.092-1.144 1.736-1.44 2.88 0.153 1.127 0.758 1.802 0.48 3.36-2.483 2.477-4.082 5.838-6.72 8.16 0.877 2.458-1.414 5.523-2.4 7.68 2.254 0.494 1.278-2.242 3.36-1.92-0.083 2.825-0.234 3.823 1.92 2.4-0.876 4.579-0.906 8.265-1.92 12 2.444 0.684 0.916-2.604 3.36-1.92 1.111 3.593-3.032 8.528-1.441 11.997zm1.44-46.56c0.431-0.076 0.246-2.655-0.48-0.96-0.123 0.286 0.196 1.01 0.48 0.96zm75.36 37.44v-1.92c-0.661-0.021-1.055 0.227-1.44 0.48-0.107-0.373-0.014-0.947-0.479-0.96 0.03 1.407 1.1 1.783 1.92 2.4zm11.04 4.8c0.042 1.929-1.238 4.304 0 6.72 0.741-3.918 4.124-7.5 6.72-6.72-1.57-3.186-4.72-2.19-6.72 0zm1.92 10.08c0.383 1.697 2.802 1.357 3.359 2.88 0.638 1.795-0.058 3.22 0 4.32 0.121 2.291 0.125 7.834-2.399 9.6 1.333-4.468-2.587-0.849-2.88-3.84 1.208-1.352 3.072-2.047 2.88-4.8-0.619-0.661-2.085-0.475-3.36-0.479-0.423-1.338-0.599-2.921-1.44-3.84-1.062 9.06-0.911 17.194-0.96 25.44 0.373 0.107 0.947 0.013 0.96 0.48 9.667-8.466 12.21-22.044 9.12-36.96-0.907 0.108-1.059-0.541-1.92-0.48-1.11 2.569-2.8 4.554-3.36 7.677zm-7.68 5.28c-0.027-0.292-0.071-0.568-0.479-0.48-0.146 1.266 1.002 1.238 1.92 1.44-0.144-0.943 0.648-0.952 0.96-1.44-0.825-0.615-0.595-2.285-1.92-2.4-0.28 0.844 0.58 2.82-0.48 2.88zm-74.88 2.88c2.426 0.035 2.746-0.607 4.8 0-0.406-1.729-4.535-1.975-4.8 0zm-7.2 5.28c1.17 1.069 0.479 4.001 2.4 4.32-0.517 3.94-0.881 11.714 1.92 13.92 1.962 5.405-0.442 16.752 4.8 18.72 0.929-2.751 0.343-7.017 2.88-8.16 1.46 2.717 0.559 4.843-0.48 7.2 3.792 0.271 3.292-3.749 7.68-2.88-1.071-2.099-2.59-2.177-2.88-4.32-0.661-4.89 3.48-5.666 5.28-7.68 0.503-0.563 0.993-2.244 1.44-2.88 0.659-0.939 1.309-1.791 1.92-2.4-0.176-3.055 0.854-4.906 0.479-8.16-2.436-0.124-2.399-2.721-4.8-2.88-0.182-2.102 1.372-2.468 1.44-4.32-3.137-1.332-4.285 2.494-8.64 1.44-0.132 0.841 1.352 2.395 0 2.88-7.191 2.025-7.693-2.865-11.04-5.76 0.494 1.61-1.492 0.744-2.399 0.957zm9.6 43.203c0.832-2.957-0.086-4.803-2.4-5.76-0.09 2.81 0.985 4.45 2.4 5.76zm30.72-2.4c-0.631-0.123-1.987 0.518-3.359 0.48-2.483-0.068-9.904-0.999-9.12 1.439 1.693-0.418 3.623 0.641 6.239 0.48 0.965-0.06 1.732-0.854 2.881-0.96 1.734-0.162 4.721 1.496 5.76-0.48-1.16 1.25-1.22-0.73-2.4-0.96zm-20.64 5.76c0.081-2.537-1.979-3.747-4.32-0.96 1.96 2.642-3.82 5.374 0 6.721-0.007-1.95 4.246-3.43 4.32-5.76zm-27.36 22.08c3.066 0.666 2.633-2.167 4.8-2.399 0.029-1.789-0.484-3.036-0.96-4.32h-1.44c-0.157 2.88-1.353 4.72-2.4 6.72zm-2.88-1.44c-0.059-1.222-0.698-1.861-1.92-1.92-0.075 1.35 1.357 1.2 1.92 1.92z"/>
	<path d="m157.44 66.347c0.861-0.061 1.013 0.588 1.92 0.48 3.09 14.916 0.547 28.494-9.12 36.96-0.013-0.467-0.587-0.373-0.96-0.48 0.049-8.246-0.103-16.38 0.96-25.44 0.842 0.919 1.018 2.502 1.44 3.84 1.275 0.005 2.741-0.182 3.36 0.479 0.192 2.753-1.672 3.449-2.88 4.8 0.293 2.991 4.213-0.628 2.88 3.84 2.524-1.766 2.521-7.31 2.399-9.6-0.058-1.1 0.638-2.524 0-4.32-0.558-1.522-2.977-1.183-3.359-2.88 0.56-3.125 2.25-5.11 3.36-7.682zm-3.84 31.68c0.922-1.213 3.472-4.64 1.44-5.76-0.86 1.269-3.96 4.149-1.44 5.76z" fill="#fff"/>
</g>
<metadata><rdf:RDF><cc:Work><dc:format>image/svg+xml</dc:format><dc:type rdf:resource="http://purl.org/dc/dcmitype/StillImage"/><cc:license rdf:resource="http://creativecommons.org/licenses/publicdomain/"/><dc:publisher><cc:Agent rdf:about="http://openclipart.org/"><dc:title>Openclipart</dc:title></cc:Agent></dc:publisher></cc:Work><cc:License rdf:about="http://creativecommons.org/licenses/publicdomain/"><cc:permits rdf:resource="http://creativecommons.org/ns#Reproduction"/><cc:permits rdf:resource="http://creativecommons.org/ns#Distribution"/><cc:permits rdf:resource="http://creativecommons.org/ns#DerivativeWorks"/></cc:License></rdf:RDF></metadata></svg>
